# Blender v2.91.0 OBJ File: 'ghastly.blend'
# www.blender.org
mtllib ghastly.mtl
o Cube_Cube.001
v -3.271086 -3.271086 -3.271086
v -3.271086 3.271086 -3.271086
v 3.271086 -3.271086 -3.271086
v 3.271086 3.271086 -3.271086
v -3.271086 -3.271086 3.271086
v -3.271086 3.271086 3.271086
v 3.271086 -3.271086 3.271086
v 3.271086 3.271086 3.271086
v 0.000000 -4.006245 -4.006246
v -4.006246 0.000000 -4.006246
v 0.000000 4.006246 -4.006245
v 4.006246 0.000000 -4.006246
v 4.006246 -4.006246 -0.000000
v 4.006246 4.006246 0.000000
v 4.006246 -0.000000 4.006246
v 0.000000 -4.006246 4.006245
v 0.000000 4.006245 4.006246
v -4.006246 -0.000000 4.006246
v -4.006246 -4.006246 -0.000000
v -4.006246 4.006246 0.000000
v 0.000000 5.665687 0.000000
v 0.000000 -5.665687 -0.000000
v -5.665687 0.000000 -0.000000
v 0.000000 -0.000000 5.665687
v 5.665687 0.000000 -0.000000
v 0.000000 0.000000 -5.665687
vt 0.536250 0.223333
vt 0.720625 0.229167
vt 0.591250 0.365000
vt 0.493750 0.305833
vt 0.503125 0.489583
vt 0.653750 0.505833
vt 0.620000 0.631667
vt 0.492500 0.678333
vt 0.498125 0.744167
vt 0.638125 0.746667
vt 0.625000 0.801667
vt 0.500000 0.801667
vt 0.517187 0.814583
vt 0.625000 0.812500
vt 0.625000 0.823333
vt 0.534375 0.827500
vt 0.336875 0.741667
vt 0.358125 0.741667
vt 0.375000 0.801667
vt 0.352500 0.810833
vt 0.728125 0.745000
vt 0.818125 0.743333
vt 0.807500 0.820000
vt 0.716250 0.810833
vt 0.740000 0.679167
vt 0.828750 0.666667
vt 0.315625 0.741667
vt 0.330000 0.820000
vt 0.301250 0.663333
vt 0.321250 0.672500
vt 0.370000 0.613333
vt 0.409375 0.816667
vt 0.443750 0.831667
vt 0.350000 0.491667
vt 0.395000 0.375000
vt 0.351875 0.217500
vt 0.367500 0.140000
vt 0.562500 0.154167
vt 0.757500 0.168333
vn 0.0000 0.0000 -1.0000
vn 0.0000 0.7071 -0.7071
vn 0.5773 0.5773 -0.5773
vn 0.7071 0.0000 -0.7071
vn 1.0000 0.0000 0.0000
vn 0.7071 0.7071 0.0000
vn 0.5773 0.5773 0.5773
vn 0.7071 0.0000 0.7071
vn 0.0000 0.0000 1.0000
vn 0.0000 0.7071 0.7071
vn -0.5773 0.5773 0.5773
vn -0.7071 0.0000 0.7071
vn -1.0000 0.0000 0.0000
vn -0.7071 0.7071 0.0000
vn -0.5773 0.5773 -0.5773
vn -0.7071 0.0000 -0.7071
vn 0.0000 -1.0000 0.0000
vn 0.0000 -0.7071 0.7071
vn -0.5773 -0.5773 0.5773
vn -0.7071 -0.7071 0.0000
vn 0.0000 1.0000 0.0000
vn 0.0000 -0.7071 -0.7071
vn -0.5773 -0.5773 -0.5773
vn 0.5773 -0.5773 -0.5773
vn 0.7071 -0.7071 0.0000
vn 0.5773 -0.5773 0.5773
usemtl Material.002
s 1
f 26/1/1 11/2/2 4/3/3 12/4/4
f 25/5/5 14/6/6 8/7/7 15/8/8
f 24/9/9 17/10/10 6/11/11 18/12/12
f 23/13/13 20/14/14 2/15/15 10/16/16
f 22/17/17 16/18/18 5/19/19 19/20/20
f 21/21/21 11/22/2 2/23/15 20/24/14
f 17/10/10 21/21/21 20/24/14 6/11/11
f 8/7/7 14/25/6 21/21/21 17/10/10
f 14/25/6 4/26/3 11/22/2 21/21/21
f 9/27/22 22/17/17 19/20/20 1/28/23
f 3/29/24 13/30/25 22/17/17 9/27/22
f 13/30/25 7/31/26 16/18/18 22/17/17
f 19/32/20 23/13/13 10/16/16 1/33/23
f 5/19/19 18/12/12 23/13/13 19/32/20
f 18/12/12 6/11/11 20/14/14 23/13/13
f 16/18/18 24/9/9 18/12/12 5/19/19
f 7/31/26 15/8/8 24/9/9 16/18/18
f 15/8/8 8/7/7 17/10/10 24/9/9
f 13/34/25 25/5/5 15/8/8 7/31/26
f 3/35/24 12/4/4 25/5/5 13/34/25
f 12/4/4 4/3/3 14/6/6 25/5/5
f 9/36/22 26/1/1 12/4/4 3/35/24
f 1/37/23 10/38/16 26/1/1 9/36/22
f 10/38/16 2/39/15 11/2/2 26/1/1
