# Blender v2.91.0 OBJ File: 'sky.blend'
# www.blender.org
mtllib skybox.mtl
o Cube_Cube.001
v 200.000000 200.000000 200.000000
v 200.000000 200.000000 -200.000000
v -200.000000 200.000000 200.000000
v -200.000000 200.000000 -200.000000
v 200.000000 -200.000000 200.000000
v 200.000000 -200.000000 -200.000000
v -200.000000 -200.000000 200.000000
v -200.000000 -200.000000 -200.000000
vt 0.751000 0.666615
vt 0.999729 0.666667
vt 0.999817 0.334160
vt 0.750364 0.333230
vt 0.750248 0.666563
vt 0.499165 0.666460
vt 0.499785 0.333953
vt 0.750364 0.333230
vt 0.247840 0.666357
vt 0.499165 0.666460
vt 0.499785 0.333953
vt 0.247840 0.333023
vt -0.000477 0.665840
vt 0.247840 0.666357
vt 0.247840 0.333023
vt 0.000763 0.334160
vt 0.751752 1.000000
vt 0.999513 1.000000
vt 0.999729 0.666667
vt 0.751000 0.666615
vt 0.751519 0.333333
vt 0.999817 0.334160
vt 0.996342 -0.000000
vt 0.751752 -0.000000
vn 0.0000 -1.0000 0.0000
vn 1.0000 0.0000 0.0000
vn 0.0000 1.0000 0.0000
vn -1.0000 0.0000 0.0000
vn 0.0000 0.0000 -1.0000
vn 0.0000 0.0000 1.0000
usemtl Material.001
s off
f 1/1/1 3/2/1 4/3/1 2/4/1
f 3/5/2 7/6/2 8/7/2 4/8/2
f 7/9/3 5/10/3 6/11/3 8/12/3
f 5/13/4 1/14/4 2/15/4 6/16/4
f 3/17/5 1/18/5 5/19/5 7/20/5
f 8/21/6 6/22/6 2/23/6 4/24/6
