# Blender v2.91.0 OBJ File: 'sky2.blend'
# www.blender.org
mtllib skybox.mtl
o Cube
v -250.946808 -247.000000 -239.758636
v -250.946960 -247.000000 254.241364
v 243.053192 -247.000000 -239.758484
v 243.053040 -247.000000 254.241516
v -250.946808 247.000000 -239.758636
v -250.946960 247.000000 254.241364
v 243.053192 247.000000 -239.758484
v 243.053040 247.000000 254.241516
vt 0.750119 0.333337
vt 0.999912 0.333337
vt 0.999912 0.000000
vt 0.750119 0.000000
vt 0.999912 0.666333
vt 1.249869 0.666333
vt 1.249869 0.333337
vt 0.250190 0.666333
vt 0.500109 0.666333
vt 0.500109 0.333337
vt 0.250190 0.333337
vt 0.750119 0.999893
vt 0.999912 0.999893
vt 0.750119 0.666333
vn -0.0000 0.0000 1.0000
vn -1.0000 0.0000 -0.0000
vn 0.0000 -1.0000 0.0000
vn 0.0000 0.0000 -1.0000
vn 0.0000 1.0000 0.0000
vn 1.0000 0.0000 0.0000
usemtl Material
s off
f 1/1/1 3/2/1 7/3/1 5/4/1
f 4/5/2 8/6/2 7/7/2 3/2/2
f 8/8/3 6/9/3 5/10/3 7/11/3
f 6/12/4 8/13/4 4/5/4 2/14/4
f 2/14/5 4/5/5 3/2/5 1/1/5
f 6/9/6 2/14/6 1/1/6 5/10/6
